<svg
    xmlns="http://www.w3.org/2000/svg"
    viewBox="0 0 24 24"
    fill="#C75B91"
    class="crown-icon"
>
    <path
        fillRule="evenodd"
        d="M10.788 3.212a.75.75 0 0 1 1.424 0l.338 1.014a.75.75 0 0 0 .537.424l1.066.273a.75.75 0 0 1 .496 1.341l-.606.882a.75.75 0 0 0 .193.816l.783.783a.75.75 0 0 1 .056 1.06l-.756.756a.75.75 0 0 0-.214.538v.637c0 .249.105.488.293.66l.756.756a.75.75 0 0 1-.056 1.06l-.783.783a.75.75 0 0 0-.193.816l.606.882a.75.75 0 0 1-.496 1.341l-1.066.273a.75.75 0 0 0-.537.424l-.338 1.014a.75.75 0 0 1-1.424 0l-.338-1.014a.75.75 0 0 0-.537-.424l-1.066-.273a.75.75 0 0 1-.496-1.341l.606-.882a.75.75 0 0 0-.193-.816l-.783-.783a.75.75 0 0 1-.056-1.06l.756-.756a.75.75 0 0 0 .214-.538v-.637a.75.75 0 0 0-.293-.66l-.756-.756a.75.75 0 0 1 .056-1.06l.783-.783a.75.75 0 0 0 .193-.816l-.606-.882a.75.75 0 0 1 .496-1.341l1.066-.273a.75.75 0 0 0 .537-.424l.338-1.014z"
        clipRule="evenodd"
    />
</svg>